#!OML:ASF F:\VICON\USERDATA\INSTALL\rory3\rory3.ASF
:FULLY-SPECIFIED
:DEGREES
17
root -0.252713 18.0728 -16.9366 3.592 -0.195592 -2.94225
lowerback 19.1883 0.458569 4.07053
upperback -0.0579923 1.56908 0.47172
thorax -10.7746 0.533295 -2.23945
lowerneck -2.21299 -0.662933 -0.535765
upperneck -8.57204 -0.870277 0.2415
head -2.30695 -0.422374 0.178301
rclavicle 9.75287e-015 -4.67144e-015
rhumerus -26.3362 11.3286 -84.1219
rradius 108.719
rwrist -7.9347
rhand -39.3619 34.5008
rfingers 7.12502
rthumb -12.3526 4.88573
lclavicle 9.75287e-015 -4.67144e-015
lhumerus -59.3506 -11.9169 95.5524
lradius 105.683
lwrist 24.4901
lhand -31.6365 13.2902
lfingers 7.12502
lthumb -4.89777 43.2136
rfemur 13.4994 4.59362 28.5836
rtibia 21.9086
rfoot 7.11203 -5.45841
rtoes -14.6111
lfemur -47.472 0.946359 -17.8908
ltibia 88.9447
lfoot 9.24815 -5.47247
ltoes -13.6708
18
root -0.249981 18.1877 -16.3657 4.12209 0.46862 -2.62779
lowerback 18.2745 0.395563 3.82502
upperback -0.218162 1.37541 0.304309
thorax -10.4499 0.456938 -2.21305
lowerneck -2.85512 -0.770639 -0.660113
upperneck -8.18824 -1.00073 0.373846
head -2.06584 -0.486931 0.237367
rclavicle -2.15247e-014 -1.55301e-014
rhumerus -26.839 12.4918 -84.3792
rradius 109.15
rwrist -7.24208
rhand -38.6631 33.6693
rfingers 7.12502
rthumb -11.6787 4.0148
lclavicle -2.15247e-014 -1.55301e-014
lhumerus -60.0703 -10.9095 95.0772
lradius 105.723
lwrist 24.7304
lhand -31.314 12.6098
lfingers 7.12502
lthumb -4.58635 42.5402
rfemur 15.9652 4.61557 28.3515
rtibia 18.5033
rfoot 12.2468 -6.68699
rtoes -9.11973
lfemur -47.9796 -0.48904 -18.1486
ltibia 84.4623
lfoot 8.89942 -5.382
ltoes -10.376
19
root -0.263246 18.2816 -15.7966 5.0868 0.411726 -2.48053
lowerback 16.9502 0.641358 3.30411
upperback -0.517499 1.53388 0.20095
thorax -10.0291 0.56361 -2.04491
lowerneck -3.5202 -0.914467 -0.793192
upperneck -7.55348 -1.17867 0.50497
head -1.74249 -0.575043 0.294527
rclavicle -8.81175e-015 -8.85834e-015
rhumerus -27.5373 13.6067 -84.6703
rradius 109.462
rwrist -6.48677
rhand -37.3559 32.6303
rfingers 7.12502
rthumb -10.418 2.90837
lclavicle -8.81175e-015 -8.85834e-015
lhumerus -60.7796 -9.85794 94.5347
lradius 105.761
lwrist 24.923
lhand -31.8122 11.953
lfingers 7.12502
lthumb -5.06735 41.8725
rfemur 18.014 5.37 28.3958
rtibia 14.9533
rfoot 16.8415 -8.29974
rtoes -3.44298
lfemur -48.8048 -0.9068 -18.0345
ltibia 79.8506
lfoot 8.48429 -5.88864
ltoes -10.5237
20
root -0.24673 18.3785 -15.1908 4.88669 -0.565052 -2.53271
lowerback 16.1692 1.0866 3.21971
upperback -0.225 2.05403 0.038585
thorax -9.22838 0.833375 -2.272
lowerneck -4.44872 -0.942363 -0.887092
upperneck -6.86069 -1.20078 0.603324
head -1.36318 -0.585098 0.330528
rclavicle -2.11581e-014 -3.62782e-015
rhumerus -27.9234 14.7031 -84.8855
rradius 109.74
rwrist -5.8287
rhand -36.5807 33.2066
rfingers 7.12502
rthumb -9.67015 3.44857
lclavicle -2.11581e-014 -3.62782e-015
lhumerus -61.2149 -8.86743 93.8772
lradius 105.853
lwrist 24.9622
lhand -32.6909 10.3599
lfingers 7.12502
lthumb -5.9158 40.2573
rfemur 21.5343 6.92889 28.4797
rtibia 10.9578
rfoot 22.4186 -9.00775
rtoes 0.922339
lfemur -47.7509 -0.664773 -17.8862
ltibia 74.9972
lfoot 7.8955 -6.24808
ltoes -12.5629
21
root -0.232339 18.4686 -14.617 4.54813 -0.38108 -2.66852
lowerback 15.8845 1.07627 3.49742
upperback 0.0550075 2.06504 -0.0620102
thorax -8.7467 0.838921 -2.52538
lowerneck -5.36363 -0.92478 -0.947766
upperneck -6.28912 -1.16529 0.635218
head -1.03247 -0.565745 0.341268
rclavicle -2.24875e-015 -1.28216e-014
rhumerus -28.1877 15.9126 -85.1062
rradius 109.91
rwrist -5.14345
rhand -36.3178 33.6918
rfingers 7.12502
rthumb -9.41648 3.92214
lclavicle -2.24875e-015 -1.28216e-014
lhumerus -61.512 -7.95019 93.1753
lradius 105.979
lwrist 25.1185
lhand -33.4199 9.16762
lfingers 7.12502
lthumb -6.61959 39.0442
rfemur 24.9408 7.3133 28.807
rtibia 7.18831
rfoot 28.6279 -8.80199
rtoes 9.19243
lfemur -46.6937 -1.51899 -17.5551
ltibia 69.9682
lfoot 7.64107 -6.59706
ltoes -13.5467
